<?xml version="1.0" encoding="UTF-8"?>
<svg xmlns="http://www.w3.org/2000/svg" xmlns:xlink="http://www.w3.org/1999/xlink" width="810pt" height="809.999993pt" viewBox="0 0 810 809.999993" version="1.2">
<defs>
<clipPath id="clip1">
  <path d="M 218 437.398438 L 808.742188 437.398438 L 808.742188 810 L 218 810 Z M 218 437.398438 "/>
</clipPath>
<clipPath id="clip2">
  <path d="M 1.257812 506 L 407 506 L 407 810 L 1.257812 810 Z M 1.257812 506 "/>
</clipPath>
<clipPath id="clip3">
  <path d="M 270.925781 685.8125 L 363.980469 685.8125 L 363.980469 810 L 270.925781 810 Z M 270.925781 685.8125 "/>
</clipPath>
<clipPath id="clip4">
  <path d="M 552 658 L 605.160156 658 L 605.160156 810 L 552 810 Z M 552 658 "/>
</clipPath>
</defs>
<g id="surface1">
<g clip-path="url(#clip1)" clip-rule="nonzero">
<path style=" stroke:none;fill-rule:nonzero;fill:rgb(13.328552%,29.798889%,45.878601%);fill-opacity:1;" d="M 218.035156 622.183594 L 267.722656 585.777344 L 285.011719 592.769531 L 298.507812 603.988281 L 326.496094 585.777344 L 341.886719 580.1875 L 354.589844 566.175781 L 368.476562 580.1875 L 379.675781 599.785156 L 395.0625 584.378906 L 411.855469 580.1875 L 428.644531 594.195312 L 444.046875 578.773438 L 462.234375 566.175781 L 483.226562 532.566406 L 500.023438 506.757812 L 526.617188 470.335938 L 553.195312 437.328125 L 582.582031 447.121094 L 607.78125 470.335938 L 620.382812 484.375 L 639.09375 507.738281 L 660.953125 525.558594 L 669.34375 560.75 L 680.546875 598.398438 L 708.535156 605.382812 L 728.125 657.503906 L 747.71875 677.800781 L 747.71875 706.222656 L 768.703125 745.875 L 768.703125 773.457031 L 803.695312 782.207031 L 809.289062 800.785156 L 809.289062 810.226562 L 301.304688 810.226562 L 218.035156 622.183594 "/>
</g>
<path style=" stroke:none;fill-rule:nonzero;fill:rgb(9.408569%,21.569824%,33.729553%);fill-opacity:1;" d="M 388.808594 790.785156 L 332.148438 731.09375 L 275.480469 627.367188 L 306.050781 654.234375 L 317.261719 667.972656 L 345.566406 667.972656 L 355.261719 694.535156 L 374.648438 722.882812 L 388.808594 734.390625 L 384.351562 761.6875 L 388.808594 790.785156 "/>
<path style=" stroke:none;fill-rule:nonzero;fill:rgb(64.309692%,84.709167%,91.758728%);fill-opacity:1;" d="M 312.765625 618.40625 L 317.261719 606.066406 L 341.09375 595.285156 L 350.789062 579.605469 L 348.855469 572.5 L 341.886719 580.1875 L 326.496094 585.777344 L 298.507812 603.988281 L 285.011719 592.769531 L 267.722656 585.777344 L 254.789062 595.265625 L 254.789062 601.464844 L 270.976562 608.71875 L 285.925781 606.066406 L 296.363281 614.671875 L 309.03125 631.101562 L 312.765625 618.40625 "/>
<g clip-path="url(#clip2)" clip-rule="nonzero">
<path style=" stroke:none;fill-rule:nonzero;fill:rgb(26.669312%,49.409485%,76.469421%);fill-opacity:1;" d="M 0.703125 810.226562 L 54.378906 663.597656 L 75.632812 653.53125 L 100.238281 627.769531 L 113.667969 637.859375 L 136.03125 614.34375 L 171.808594 566.214844 L 207.601562 516.96875 L 226.625 506.902344 L 243.390625 547.183594 L 263.53125 579.644531 L 272.46875 610.988281 L 288.128906 627.769531 L 298.195312 652.410156 L 309.375 673.664062 L 346.289062 694.945312 L 386.554688 776.640625 L 406.679688 810.226562 L 0.703125 810.226562 "/>
</g>
<path style=" stroke:none;fill-rule:nonzero;fill:rgb(13.328552%,29.798889%,45.878601%);fill-opacity:1;" d="M 4.0625 801.035156 L 39.097656 752.023438 L 51.398438 717.328125 L 61.480469 708.367188 L 67.070312 716.207031 L 78.242188 698.300781 L 83.84375 677.027344 L 97.257812 671.429688 L 97.257812 689.339844 L 107.507812 678.148438 L 124.097656 658.5625 L 131.921875 671.429688 L 143.109375 641.214844 L 169.957031 613.238281 L 185.609375 583 L 203.695312 557.257812 L 203.695312 571.8125 L 222.523438 538.238281 L 222.523438 522.574219 L 229.6875 514.273438 L 226.625 506.902344 L 207.601562 516.96875 L 171.808594 566.214844 L 136.03125 614.34375 L 113.667969 637.859375 L 100.238281 627.769531 L 75.632812 653.53125 L 54.378906 663.597656 L 4.0625 801.035156 "/>
<path style=" stroke:none;fill-rule:nonzero;fill:rgb(13.328552%,29.798889%,45.878601%);fill-opacity:1;" d="M 141.441406 711.722656 L 131.921875 736.921875 L 116.871094 744.1875 L 116.871094 732.984375 L 86.632812 761.539062 L 77.679688 781.683594 L 65.945312 786.722656 L 55.878906 791.765625 L 50.839844 786.722656 L 4.0625 810.226562 L 40.113281 810.226562 L 45.820312 801.035156 L 54.378906 798.289062 L 81.976562 790.464844 L 86.441406 774.027344 L 92.035156 761.355469 L 105.089844 753.515625 L 105.089844 756.878906 L 116.871094 753.515625 L 111.425781 759.855469 L 109.933594 770.292969 L 97.636719 776.640625 L 92.785156 789.707031 L 86.441406 796.0625 L 84.585938 803.878906 L 82.109375 810.226562 L 104.28125 810.226562 L 103.976562 805.195312 L 107.507812 790.070312 L 111.804688 776.640625 L 119.628906 767.128906 L 124.652344 754.820312 L 138.636719 749.785156 L 145.34375 732.421875 L 147.589844 715.09375 L 168.835938 673.125 L 141.441406 711.722656 "/>
<path style=" stroke:none;fill-rule:nonzero;fill:rgb(13.328552%,29.798889%,45.878601%);fill-opacity:1;" d="M 242.222656 544.378906 L 247.121094 598.679688 L 242.222656 612.84375 L 232.964844 633.003906 L 222.523438 645.691406 L 218.035156 658.5625 L 232.589844 641.972656 L 247.121094 625.535156 L 253.09375 606.132812 L 259.050781 589.710938 L 253.691406 563.800781 L 242.222656 544.378906 "/>
<g clip-path="url(#clip3)" clip-rule="nonzero">
<path style=" stroke:none;fill-rule:nonzero;fill:rgb(13.328552%,29.798889%,45.878601%);fill-opacity:1;" d="M 356.726562 795.667969 L 343.296875 785.972656 L 336.59375 772.550781 L 328.386719 762.839844 L 319.449219 752.765625 L 309.011719 734.484375 L 309.746094 718.820312 L 288.878906 709.867188 L 289.628906 694.945312 L 270.976562 685.980469 L 285.144531 727.023438 L 297.824219 735.976562 L 303.789062 752.40625 L 314.96875 762.839844 L 324.664062 779.261719 L 324.664062 797.167969 L 337.339844 810.226562 L 363.535156 810.226562 L 356.726562 795.667969 "/>
</g>
<path style=" stroke:none;fill-rule:nonzero;fill:rgb(64.309692%,84.709167%,91.758728%);fill-opacity:1;" d="M 423.488281 623.78125 L 443.792969 637.8125 L 474.933594 653.96875 L 507.367188 645.644531 L 544.273438 658.5625 L 531.964844 634.449219 L 544.273438 623.78125 L 550.980469 615.4375 L 567.757812 623.78125 L 576.707031 613.195312 L 568.878906 612.066406 L 556.574219 601.464844 L 537.558594 595.285156 L 523.019531 606.476562 L 500.660156 595.285156 L 487.234375 601.464844 L 478.191406 601.464844 L 469.339844 584.097656 L 478.191406 571.773438 L 470.089844 553.59375 L 462.234375 566.175781 L 444.046875 578.773438 L 428.644531 594.195312 L 411.855469 580.1875 L 395.0625 584.378906 L 379.675781 599.785156 L 388.808594 615.4375 L 423.488281 623.78125 "/>
<path style=" stroke:none;fill-rule:nonzero;fill:rgb(64.309692%,84.709167%,91.758728%);fill-opacity:1;" d="M 432.804688 639.304688 L 452.941406 653.96875 L 459.644531 669.160156 L 446.226562 658.5625 L 432.804688 639.304688 "/>
<path style=" stroke:none;fill-rule:nonzero;fill:rgb(64.309692%,84.709167%,91.758728%);fill-opacity:1;" d="M 417.148438 634.09375 L 427.585938 644.539062 L 427.585938 658.5625 L 419.378906 653.96875 L 417.148438 634.09375 "/>
<path style=" stroke:none;fill-rule:nonzero;fill:rgb(64.309692%,84.709167%,91.758728%);fill-opacity:1;" d="M 432.804688 658.5625 L 432.804688 669.160156 L 443.792969 677.371094 L 455.914062 677.371094 L 450.691406 673.125 L 432.804688 658.5625 "/>
<path style=" stroke:none;fill-rule:nonzero;fill:rgb(64.309692%,84.709167%,91.758728%);fill-opacity:1;" d="M 459.644531 677.371094 L 465.617188 681.089844 L 478.191406 681.089844 Z M 459.644531 677.371094 "/>
<path style=" stroke:none;fill-rule:nonzero;fill:rgb(64.309692%,84.709167%,91.758728%);fill-opacity:1;" d="M 463.378906 654.234375 L 466.359375 667.972656 L 478.191406 669.160156 L 493.199219 673.125 L 463.378906 654.234375 "/>
<path style=" stroke:none;fill-rule:nonzero;fill:rgb(64.309692%,84.709167%,91.758728%);fill-opacity:1;" d="M 493.199219 528.117188 L 513.664062 497.53125 L 519.296875 497.53125 L 533.457031 482.601562 L 555.832031 478.882812 L 564.769531 463.949219 L 564.769531 448.285156 L 576.707031 466.941406 L 570.75 481.117188 L 568.5 488.199219 L 548.375 488.199219 L 534.949219 506.902344 L 520.039062 506.902344 L 513.664062 516.179688 L 508.859375 531.109375 L 488.726562 540.660156 L 493.199219 528.117188 "/>
<path style=" stroke:none;fill-rule:nonzero;fill:rgb(64.309692%,84.709167%,91.758728%);fill-opacity:1;" d="M 600.5625 506.902344 L 608.019531 540.660156 L 637.847656 572.144531 L 643.0625 593.039062 L 656.480469 613.9375 L 669.902344 623.78125 L 687.050781 631.101562 L 668.417969 606.066406 L 654.992188 582.597656 L 654.992188 564.683594 L 640.078125 545.285156 L 629.648438 540.660156 L 620.703125 519.914062 L 600.5625 506.902344 "/>
<path style=" stroke:none;fill-rule:nonzero;fill:rgb(64.309692%,84.709167%,91.758728%);fill-opacity:1;" d="M 517.796875 525.140625 L 513.664062 535.589844 L 501.402344 544.378906 L 513.664062 544.378906 L 521.535156 534.757812 L 517.796875 525.140625 "/>
<path style=" stroke:none;fill-rule:nonzero;fill:rgb(64.309692%,84.709167%,91.758728%);fill-opacity:1;" d="M 528.242188 519.171875 L 532.714844 513.195312 L 535.703125 519.171875 L 524.503906 525.140625 L 528.242188 519.171875 "/>
<path style=" stroke:none;fill-rule:nonzero;fill:rgb(64.309692%,84.709167%,91.758728%);fill-opacity:1;" d="M 592.367188 530.359375 L 592.367188 540.660156 L 605.035156 544.378906 L 592.367188 549.019531 L 576.707031 540.660156 L 581.929688 525.140625 L 584.910156 531.109375 L 592.367188 530.359375 "/>
<path style=" stroke:none;fill-rule:nonzero;fill:rgb(64.309692%,84.709167%,91.758728%);fill-opacity:1;" d="M 595.347656 506.902344 L 595.347656 474.402344 L 590.867188 484.109375 L 587.890625 494.464844 L 595.347656 506.902344 "/>
<g clip-path="url(#clip4)" clip-rule="nonzero">
<path style=" stroke:none;fill-rule:nonzero;fill:rgb(9.408569%,21.569824%,33.729553%);fill-opacity:1;" d="M 604.011719 810.226562 L 554.859375 810.226562 L 564.035156 790.050781 L 569.992188 762.414062 L 556.574219 731.09375 L 552.847656 688.558594 L 552.847656 658.5625 L 561.425781 699.746094 L 576.707031 716.917969 L 591.625 736.617188 L 605.035156 754.226562 L 605.035156 767.65625 L 600.5625 780.335938 L 600.5625 795.277344 L 604.011719 810.226562 "/>
</g>
<path style=" stroke:none;fill-rule:nonzero;fill:rgb(9.408569%,21.569824%,33.729553%);fill-opacity:1;" d="M 744.46875 761.6875 L 719.855469 749 L 711.660156 736.617188 L 708.683594 725.859375 L 697.480469 716.917969 L 687.050781 706.457031 L 681.09375 681.089844 L 672.882812 658.5625 L 643.8125 627.367188 L 683.328125 652.734375 L 699.730469 691.542969 L 709.417969 708.699219 L 719.855469 720.644531 L 723.59375 736.617188 L 740.738281 751.234375 L 744.46875 761.6875 "/>
</g>
</svg>
